<?xml version="1.0" encoding="UTF-8"?> <svg xmlns="http://www.w3.org/2000/svg" width="28" height="29" viewBox="0 0 28 29" fill="none"><g clip-path="url(#clip0_417_19533)"><path d="M27.9163 0.583984H0.0839844V28.4163H27.9163V0.583984Z" fill="white"></path><path d="M0.0839844 0.583984V28.4163H27.9163V24.0188H24.0754L22.656 22.3583L21.1809 24.0188H10.2706V15.1776H6.67078L11.1707 4.99095H15.5493L16.6069 7.30103V4.99095H22.0437L22.9527 7.41235L23.8433 4.99095H27.9163V0.583984H0.0839844ZM24.7712 6.42876L23.3423 10.1956L22.9621 11.2165L22.5725 10.1956L21.1347 6.42876H17.9896V13.8511H19.8822V9.01772L19.8727 8.04303L20.244 9.01772L22.0531 13.8511H23.8528L25.6713 9.01772L26.0237 8.0525V13.8511H27.9163V6.42876H24.7712ZM12.191 6.42876L8.90682 13.8511H11.0588L11.6344 12.4222H15.2342L15.8092 13.8511H17.9896L14.7238 6.42876H12.191ZM13.0627 8.94313L13.434 8.01576L13.8053 8.94313L14.5751 10.8168H12.2929L13.0627 8.94313ZM24.9199 15.187L22.6838 17.5895L20.4572 15.187H17.9896H11.7919V22.5809H17.9896V20.9761H13.6845V19.6864H17.9061V18.091H13.6845V16.7918H17.9896V15.187L21.4497 18.8976L17.9896 22.5809H20.3832L22.6376 20.169L24.8826 22.5809H27.3407L23.8711 18.8698L27.3407 15.187H24.9199ZM25.8194 18.8609L27.9163 20.9945V16.7545L25.8194 18.8609Z" fill="#006FCF"></path></g><defs><clipPath id="clip0_417_19533"><rect width="27.8323" height="27.8323" fill="white" transform="translate(0.0839844 0.583984)"></rect></clipPath></defs></svg> 