<?xml version="1.0" encoding="UTF-8"?> <svg xmlns="http://www.w3.org/2000/svg" width="28" height="29" viewBox="0 0 28 29" fill="none"><g clip-path="url(#clip0_417_19547)"><path d="M14.0006 28.4163C21.6863 28.4163 27.9168 22.1858 27.9168 14.5001C27.9168 6.81445 21.6863 0.583984 14.0006 0.583984C6.31494 0.583984 0.0844727 6.81445 0.0844727 14.5001C0.0844727 22.1858 6.31494 28.4163 14.0006 28.4163Z" fill="#F89D30"></path><path d="M11.2168 6.15039V8.93362C10.8745 8.94753 10.2469 8.93362 9.91915 8.93362H7.73779V10.3252C7.73779 10.3252 8.93389 10.3044 8.9144 10.3252C9.55455 10.3155 9.75911 10.7803 9.82522 11.0906V17.9791C9.80086 18.1753 9.82174 18.661 9.37433 18.6749C9.39521 18.693 7.73779 18.6749 7.73779 18.6749V20.0665H10.002C10.3846 20.0526 10.8467 20.0665 11.2168 20.0665V22.8498L12.6084 22.824V20.0665H13.9785L14.0216 22.8498H15.4132L15.3701 20.0665C19.5665 20.0665 19.5665 17.9791 19.5665 16.934C19.5665 15.8917 19.1254 14.5015 17.4791 14.5001C18.4296 14.5015 18.8707 12.9296 18.8707 11.7168C18.8707 10.1464 17.4791 8.93362 15.3917 8.93362V6.15039H14.0001V8.93362C13.5847 8.93362 13.0301 8.91831 12.6084 8.93362V6.15039H11.2168ZM12.6084 10.3252C14.0001 10.3252 16.0875 10.3252 16.0875 12.0647C16.0875 13.8043 14.0001 13.8043 12.6084 13.8043V10.3252ZM12.6084 15.1959C15.3917 15.1959 16.7833 15.1959 16.7833 16.9354C16.7833 18.6749 15.3917 18.6749 12.6084 18.6749V15.1959Z" fill="white"></path></g><defs><clipPath id="clip0_417_19547"><rect width="27.8323" height="27.8323" fill="white" transform="translate(0.0839844 0.583984)"></rect></clipPath></defs></svg> 