<?xml version="1.0" encoding="UTF-8"?> <svg xmlns="http://www.w3.org/2000/svg" width="151" height="36" viewBox="0 0 151 36" fill="none"><g clip-path="url(#clip0_632_10192)"><path d="M12.7689 28.4104C11.654 28.4104 9.49096 28.1136 9.49096 25.1265C9.49096 23.6784 9.83936 21.9031 10.2544 20.7065C11.4329 17.2468 13.7322 16.6046 15.1652 16.6046H21.8876L22.8843 11.2666H14.5835C12.6719 11.2666 8.59727 11.6332 5.34966 14.5869C2.54739 17.1256 0.956909 21.688 0.956909 25.1477C0.956909 28.8982 2.54739 34.1271 10.0605 34.1271H18.3643L19.5125 28.4104H12.7719H12.7689Z" fill="#E52521"></path><path d="M17.5403 0L16.1195 6.95872H27.7194L22.4632 34.1302H32.2091L37.4562 6.95872H48.7652L50.177 0H17.5403Z" fill="white"></path><path fill-rule="evenodd" clip-rule="evenodd" d="M148.25 12.2875C146.839 11.4756 145.657 11.2666 142.846 11.2666H109.288L108.122 17.0832C107.889 16.2562 107.534 15.4897 107.037 14.7505C106.489 13.9568 105.771 13.2691 104.814 12.7177C104.071 12.2784 103.199 11.8422 102.16 11.6301C101.342 11.4605 100.43 11.2666 99.412 11.2666H86.9063L83.1952 30.2009L80.2839 11.2666H68.7779L57.6749 31.4733L57.6143 27.2744C57.5961 25.9657 57.1629 25.078 56.5449 24.4418C55.8057 23.6845 54.8181 23.3451 53.9819 23.2361L54.0183 23.1816C55.3391 22.9998 56.5418 22.5454 57.5355 21.8759C59.338 20.6762 60.4771 18.7827 60.4771 16.5924C60.4771 14.4021 59.3562 12.9873 57.8051 12.1936C56.7478 11.6423 55.4755 11.2666 54.2425 11.2666H39.498L38.4467 16.6106L48.6531 16.5985C49.2256 16.5985 51.5311 16.5803 51.5311 18.5252C51.5311 19.0796 51.3978 19.9703 50.4132 20.6095C49.8194 20.9882 48.747 21.1457 47.3776 21.1457H37.5409L35.0204 34.118H43.2697L44.8692 26.0868H46.7808C47.3292 26.0868 48.0956 26.1353 48.5804 26.6685C48.8863 26.9957 49.0772 27.6349 49.0378 28.3953L48.7864 34.118H64.982L66.9905 29.7949H74.3794L74.7006 34.118H94.8799C96.7855 34.118 100.872 33.7393 104.129 30.7734C104.744 30.21 105.304 29.6283 105.795 28.9194L104.762 34.118H122.857L123.99 28.2499H114.296L114.929 25.1628H123.018L124.045 19.9127H115.959L116.601 16.6106L138.874 16.5985C140.243 16.5985 141.795 16.8893 141.795 18.4525C141.795 20.1854 140.431 21.1457 138.756 21.1457H127.52L125.002 34.118H133.56L135.16 26.0868H137.065C137.614 26.0868 138.392 26.1232 138.883 26.6685C139.174 26.9987 139.359 27.6561 139.325 28.3892L139.065 34.118H147.966L147.872 27.4774C147.86 26.0777 147.36 25.0356 146.669 24.3934C145.951 23.7299 145.03 23.3724 144.245 23.2664L144.279 23.1846C145.878 22.9574 147.305 22.3303 148.402 21.4093C149.841 20.2187 150.735 18.4647 150.735 16.5349C150.735 14.6051 149.692 13.1176 148.25 12.2875ZM69.7746 23.9268L73.2403 16.5167H73.3706L73.9311 23.9268H69.7746ZM98.7395 24.4388C97.561 27.95 95.3313 28.2499 93.8954 28.2499H92.3079L94.5861 16.6046L96.2281 16.6258C97.3399 16.6258 99.5029 16.856 99.5029 19.8855C99.5029 21.3487 99.1606 23.2331 98.7395 24.4388Z" fill="white"></path></g><defs><clipPath id="clip0_632_10192"><rect width="149.778" height="36" fill="white" transform="translate(0.957153)"></rect></clipPath></defs></svg> 