<?xml version="1.0" encoding="UTF-8"?> <svg xmlns="http://www.w3.org/2000/svg" width="225" height="225" viewBox="0 0 225 225" fill="none"><path fill-rule="evenodd" clip-rule="evenodd" d="M106.183 176.069L74.2128 143.926L81.1028 166.677L79.9328 166.376L75.3828 165.221L61.4628 161.685L39.7028 133.128C37.1828 129.824 34.4528 126.549 32.5628 122.823C30.8928 119.538 29.8928 116.073 28.7828 112.577C27.4228 108.288 26.4728 104.903 26.3328 100.312C26.2628 97.952 26.3728 95.481 26.6028 93L18.8628 98.3036L15.2928 89.615C14.8728 89.2132 14.2228 88.6908 13.8328 88.4699C10.7928 86.9632 8.39281 84.5324 7.43281 81.1875C5.59281 74.7489 9.93281 69.4453 14.5428 65.5982C17.6128 61.6004 20.2728 59.3203 24.0828 55.9353C24.5528 55.5234 24.9928 55.1016 25.4028 54.6295C32.8328 41.9833 44.8828 33.1741 59.3928 30.6629C60.4228 30.4821 61.4528 30.3415 62.4928 30.231L69.3928 30C73.9528 30.1808 78.4828 31.0246 82.7728 32.5413C127.893 32.5413 172.263 32.8426 217.313 32.8426L217.083 94.3962L197.153 74.0257V124.932L134.403 187.962L128.243 194.15L126.933 193.135L106.173 176.039L106.183 176.069ZM109.043 46.4431V168.787L126.113 182.006V102.442L142.203 102.482L146.803 107.324L146.753 80.173L142.203 85.1049L126.113 85.0647V58.3862L139.963 58.2054L149.523 71.2634V40.9085H103.193L109.043 46.4431ZM171.693 112.276V98.3638H171.683V58.3862H163.363L152.003 71.7054L151.873 41.2098H209.033L208.803 70.5804L197.563 58.3862H188.873V93.8638V121.517L132.053 178.59V150.696L171.703 112.286L171.693 112.276ZM56.2028 62.4944C55.9928 62.9263 54.6428 63.298 52.1428 63.6194C55.2228 61.9118 57.9428 59.1295 60.3128 55.2924C58.2028 55.3426 54.9228 56.106 50.4828 57.5725C62.3428 46.3828 95.2228 48.9944 98.8628 80.8259C110.793 36.6696 53.2028 22.5469 32.2328 59.4509C29.0228 63.4587 25.9028 64.202 20.5628 71.4442C14.7628 76.0346 13.7828 79.2388 17.6228 81.067C19.4128 82.0011 22.0828 84.3114 22.6428 85.6574C25.0128 84.0301 26.3128 82.2422 26.5328 80.3036C33.5328 79.6004 33.0628 80.3538 36.1928 78.1239C36.5028 78.4051 36.8328 78.7165 37.2028 79.058C36.7528 80.7757 36.3428 82.9754 35.8928 85.798C35.2228 90.0871 34.5028 95.8326 34.6328 100.071C34.7628 104.31 35.7428 107.052 36.6928 110.056C37.6428 113.059 38.5728 116.314 39.9628 119.056C41.3528 121.798 43.2128 124.018 46.2928 128.086L66.3028 154.343L69.6428 155.186L66.6728 143.414L58.1828 124.4L58.6628 125.123C58.5728 124.821 59.1028 125.123 60.8028 126.087C63.2728 127.483 68.2228 130.276 71.6728 131.411C73.2028 131.913 74.4428 132.094 75.5528 132.184L104.833 165.552V142.118L104.793 141.998C108.693 128.94 106.593 123.174 101.803 120.201C102.513 117.338 101.433 113.481 101.943 111.643C103.543 105.917 103.613 91.4029 83.3228 93.2913C83.0528 93.3214 92.3628 97.9118 93.0528 100.744C94.0428 104.802 94.4728 111.231 89.0228 110.407C82.5828 109.423 79.0328 109.061 74.9128 106.942C61.6628 100.122 54.0028 77.26 56.1928 62.4844L56.2028 62.4944Z" fill="white"></path></svg> 