<?xml version="1.0" encoding="UTF-8"?> <svg xmlns="http://www.w3.org/2000/svg" width="46" height="29" viewBox="0 0 46 29" fill="none"><path d="M29.125 3.49414H16.875V25.5053H29.125V3.49414Z" fill="#FF5F00"></path><path d="M17.6527 14.5C17.6527 10.0278 19.7528 6.06112 22.9805 3.49445C20.6083 1.62778 17.6138 0.5 14.3472 0.5C6.6083 0.5 0.347168 6.76113 0.347168 14.5C0.347168 22.2389 6.6083 28.5 14.3472 28.5C17.6138 28.5 20.6083 27.3722 22.9805 25.5056C19.7528 22.9778 17.6527 18.9722 17.6527 14.5Z" fill="#EB001B"></path><path d="M45.653 14.5C45.653 22.2389 39.3918 28.5 31.6529 28.5C28.3862 28.5 25.3918 27.3722 23.0195 25.5056C26.2862 22.9389 28.3473 18.9722 28.3473 14.5C28.3473 10.0278 26.2473 6.06112 23.0195 3.49445C25.3918 1.62778 28.3862 0.5 31.6529 0.5C39.3918 0.5 45.653 6.8 45.653 14.5Z" fill="#F79E1B"></path></svg> 