<?xml version="1.0" encoding="UTF-8"?> <svg xmlns="http://www.w3.org/2000/svg" width="155" height="44" viewBox="0 0 155 44" fill="none"><path d="M63.7865 20V10.0379H60.0527V8.7828H68.9323V10.0379H65.1985V20H63.7865ZM70.3341 20V8.7828H74.8837C77.0958 8.7828 78.5862 9.97511 78.5862 11.9675C78.5862 13.5834 77.8174 14.4777 76.5781 14.7915V14.8228C79.0725 15.3092 78.1626 19.7176 78.7431 19.9059V20H77.2213C76.7349 19.5293 77.8018 15.4661 74.9622 15.4661H71.746V20H70.3341ZM71.746 10.0379V14.211H74.5543C75.7152 14.211 77.1742 14.0698 77.1742 12.1244C77.1742 10.1791 75.7152 10.0379 74.5543 10.0379H71.746ZM86.7569 17.1918H81.815L80.8267 20H79.3677L83.5094 8.7828H85.0782L89.2043 20H87.7453L86.7569 17.1918ZM82.2857 15.9367H86.3019L84.3095 10.0849H84.2781L82.2857 15.9367ZM90.4195 20V8.7828H94.4828C97.5734 8.7828 99.4717 10.7909 99.4717 14.3992C99.4717 18.0076 97.5734 20 94.4828 20H90.4195ZM91.8315 10.0379V18.7449H94.4828C97.3381 18.7449 98.0598 16.5956 98.0598 14.3992C98.0598 12.2029 97.3381 10.0379 94.4828 10.0379H91.8315ZM102.556 13.5678H108.314V14.8228H102.556V18.7449H109.255V20H101.144V8.7828H109.067V10.0379H102.556V13.5678ZM117.072 20V10.0379H113.338V8.7828H122.218V10.0379H118.484V20H117.072ZM125.031 13.5678H130.789V14.8228H125.031V18.7449H131.73V20H123.619V8.7828H131.542V10.0379H125.031V13.5678ZM141.276 12.4853C141.072 11.4184 140.256 9.81823 137.918 9.81823C135.251 9.81823 134.137 12.1244 134.137 14.3836C134.137 16.6584 135.251 18.9646 137.918 18.9646C140.271 18.9646 141.181 17.3643 141.276 15.9524H142.687C142.436 18.4312 140.679 20.2196 137.918 20.2196C134.843 20.2196 132.725 17.7722 132.725 14.3836C132.725 11.0105 134.843 8.56316 137.918 8.56316C140.664 8.56316 142.421 10.3516 142.687 12.4853H141.276ZM144.272 8.7828H145.684V13.5521H151.677V8.7828H153.089V20H151.677V14.8071H145.684V20H144.272V8.7828Z" fill="white"></path><path d="M66.4697 30.1098C68.6923 30.7189 70.9807 31.4433 70.9807 33.9622C70.9807 36.2177 69.2685 37.683 66.3215 37.683C63.2593 37.683 60.9545 36.1683 60.9545 33.5507H63.9179C63.9179 34.8019 65.0045 35.2628 66.3215 35.2628C67.4246 35.2628 68.0173 34.8348 68.0173 34.2421C68.0173 33.3037 66.7496 33.0897 65.0868 32.5958C63.0618 32.0031 61.2837 31.1305 61.2837 28.9574C61.2837 26.3891 63.2923 25.3848 65.8276 25.3848C68.577 25.3848 70.7337 26.8336 70.8161 29.2208H67.8526C67.7209 28.3318 66.9636 27.8049 65.8276 27.8049C64.9386 27.8049 64.2472 28.0848 64.2472 28.7433C64.2472 29.4677 64.988 29.6982 66.4697 30.1098ZM77.5243 37.683C73.7871 37.683 71.6962 35.0818 71.6962 31.5257C71.6962 27.986 73.7871 25.3848 77.5243 25.3848C81.2285 25.3848 83.3523 27.986 83.3523 31.5257C83.3523 35.0818 81.2285 37.683 77.5243 37.683ZM77.5243 35.2628C79.6645 35.2628 80.3889 33.5836 80.3889 31.5257C80.3889 29.4842 79.6645 27.8049 77.5243 27.8049C75.3675 27.8049 74.6596 29.4842 74.6596 31.5257C74.6596 33.5836 75.3675 35.2628 77.5243 35.2628ZM84.489 25.6482H87.4525V34.9994H92.6878V37.4196H84.489V25.6482ZM103.32 33.172C103.32 36.1025 101.953 37.683 98.397 37.683C94.8409 37.683 93.4745 36.1025 93.4745 33.172V25.6482H96.4379V33.172C96.4379 34.7031 97.0964 35.2628 98.397 35.2628C99.6976 35.2628 100.356 34.7031 100.356 33.172V25.6482H103.32V33.172ZM107.741 37.4196V28.0683H104.316V25.6482H114.112V28.0683H110.704V37.4196H107.741ZM115.214 25.6482H118.177V37.4196H115.214V25.6482ZM125.226 37.683C121.489 37.683 119.398 35.0818 119.398 31.5257C119.398 27.986 121.489 25.3848 125.226 25.3848C128.931 25.3848 131.054 27.986 131.054 31.5257C131.054 35.0818 128.931 37.683 125.226 37.683ZM125.226 35.2628C127.367 35.2628 128.091 33.5836 128.091 31.5257C128.091 29.4842 127.367 27.8049 125.226 27.8049C123.07 27.8049 122.362 29.4842 122.362 31.5257C122.362 33.5836 123.07 35.2628 125.226 35.2628ZM132.191 37.4196V25.6482H135.155L139.27 32.6452H139.303V25.6482H142.267V37.4196H139.303L135.187 30.4226H135.155V37.4196H132.191ZM148.996 30.1098C151.218 30.7189 153.507 31.4433 153.507 33.9622C153.507 36.2177 151.795 37.683 148.848 37.683C145.785 37.683 143.481 36.1683 143.481 33.5507H146.444C146.444 34.8019 147.531 35.2628 148.848 35.2628C149.951 35.2628 150.543 34.8348 150.543 34.2421C150.543 33.3037 149.276 33.0897 147.613 32.5958C145.588 32.0031 143.81 31.1305 143.81 28.9574C143.81 26.3891 145.818 25.3848 148.354 25.3848C151.103 25.3848 153.26 26.8336 153.342 29.2208H150.379C150.247 28.3318 149.49 27.8049 148.354 27.8049C147.465 27.8049 146.773 28.0848 146.773 28.7433C146.773 29.4677 147.514 29.6982 148.996 30.1098Z" fill="white"></path><rect x="18.6587" y="11.9415" width="5.22439" height="31.3463" fill="#D9D9D9"></rect><rect x="18.6587" y="11.9415" width="5.22439" height="31.3463" fill="black" fill-opacity="0.2"></rect><rect x="39.5562" y="8.95605" width="5.22439" height="31.3463" transform="rotate(90 39.5562 8.95605)" fill="#D9D9D9"></rect><rect x="39.5562" y="8.95605" width="5.22439" height="31.3463" transform="rotate(90 39.5562 8.95605)" fill="black" fill-opacity="0.2"></rect><rect x="39.5562" width="5.22439" height="39.5561" transform="rotate(90 39.5562 0)" fill="#D9D9D9"></rect><rect x="39.5562" width="5.22439" height="39.5561" transform="rotate(90 39.5562 0)" fill="black" fill-opacity="0.2"></rect><rect x="47.7656" width="5.22439" height="5.22439" transform="rotate(90 47.7656 0)" fill="white"></rect><rect x="42.5415" y="37.9122" width="5.22439" height="5.22439" transform="rotate(90 42.5415 37.9122)" fill="white"></rect><rect width="5.22439" height="5.22439" transform="matrix(4.82333e-08 1 1 -3.96134e-08 5.22461 37.9122)" fill="white"></rect><rect x="47.7656" y="8.95605" width="34.3317" height="5.22439" transform="rotate(90 47.7656 8.95605)" fill="white"></rect><rect width="23.1366" height="5.22439" transform="matrix(4.37114e-08 1 1 -4.37114e-08 0 20)" fill="white"></rect><rect width="13.4341" height="5.22439" transform="matrix(4.37114e-08 1 1 -4.37114e-08 11.1953 23.1366)" fill="white"></rect><rect width="13.4341" height="5.22439" transform="matrix(4.37114e-08 1 1 -4.37114e-08 33.5854 23.1366)" fill="white"></rect><rect width="19.4049" height="5.22439" transform="matrix(4.37114e-08 1 1 -4.37114e-08 26.1221 18.6586)" fill="white"></rect><rect x="5.22461" y="17.1659" width="5.22439" height="11.9415" transform="rotate(-180 5.22461 17.1659)" fill="#D9D9D9"></rect><rect x="5.22461" y="17.1659" width="5.22439" height="11.9415" transform="rotate(-180 5.22461 17.1659)" fill="black" fill-opacity="0.2"></rect><path d="M23.8831 43.2878H18.6587V14.5536H8.20996V8.58289H39.5563V14.5536H23.8831V43.2878Z" fill="url(#paint0_linear_17_1100)"></path><path d="M0 17.1659H5.22439V5.22439H39.5561V0H0V17.1659Z" fill="url(#paint1_linear_17_1100)"></path><defs><linearGradient id="paint0_linear_17_1100" x1="34.3319" y1="25.0024" x2="13.0516" y2="25.8915" gradientUnits="userSpaceOnUse"><stop stop-color="#3760FF"></stop><stop offset="1" stop-color="#944DF6"></stop></linearGradient><linearGradient id="paint1_linear_17_1100" x1="32.9634" y1="8.12148" x2="6.36495" y2="10.9566" gradientUnits="userSpaceOnUse"><stop stop-color="#3760FF"></stop><stop offset="1" stop-color="#944DF6"></stop></linearGradient></defs></svg> 