<?xml version="1.0" encoding="UTF-8"?> <svg xmlns="http://www.w3.org/2000/svg" width="62" height="21" viewBox="0 0 62 21" fill="none"><path d="M40.1501 0.517578C35.857 0.517578 32.0205 2.7852 32.0205 6.97482C32.0205 11.7796 38.8247 12.1114 38.8247 14.5252C38.8247 15.5415 37.6818 16.4513 35.7298 16.4513C32.9594 16.4513 30.8889 15.1801 30.8889 15.1801L30.0029 19.4079C30.0029 19.4079 32.3881 20.4817 35.5549 20.4817C40.2486 20.4817 43.942 18.1027 43.942 13.8414C43.942 8.7644 37.1095 8.4424 37.1095 6.20204C37.1095 5.40583 38.0477 4.5335 39.9942 4.5335C42.1904 4.5335 43.9821 5.45803 43.9821 5.45803L44.8492 1.37468C44.8492 1.37468 42.8996 0.517578 40.1501 0.517578ZM0.872511 0.825755L0.768555 1.44211C0.768555 1.44211 2.57466 1.77896 4.20136 2.45097C6.29589 3.22141 6.44502 3.67004 6.79784 5.06319L10.6417 20.1639H15.7944L23.7326 0.825755H18.5917L13.491 13.9738L11.4096 2.82891C11.2186 1.55343 10.2518 0.825755 9.06828 0.825755H0.872511ZM25.7999 0.825755L21.767 20.1639H26.6693L30.688 0.825755H25.7999ZM53.1418 0.825755C51.9597 0.825755 51.3333 1.47078 50.8737 2.59777L43.6916 20.1639H48.8325L49.8271 17.2362H56.0902L56.6951 20.1639H61.2312L57.2739 0.825755H53.1418ZM53.8104 6.05029L55.3343 13.3069H51.2517L53.8104 6.05029Z" fill="white"></path></svg> 